<svg xmlns="http://www.w3.org/2000/svg" viewBox="35 30.6 122.6 54.6"><defs><style>.cls-1{fill:#fff;}.cls-2{fill:#000091;}.cls-3{fill:#e1000f;}.cls-4{fill:gray;}</style></defs><rect class="cls-1" width="695.2023" height="422.0278"/><path class="cls-2" d="M77.58675,72.4919c.097-.079.187-.146.285-.218l.036.012a1.45487,1.45487,0,0,1-.291.187.10333.10333,0,0,1-.03.019m14.1591-4.72171c-.036.024-.066.048-.103.072.055-.006.103-.018.103-.072m-4.47591,4.936a18.87782,18.87782,0,0,1-3.721,2.124,32.37039,32.37039,0,0,0-4.715,2.433h-35.811v-38.631h50.431a19.36339,19.36339,0,0,0-1.936.738,6.05537,6.05537,0,0,0-2.257,1.464,6.41568,6.41568,0,0,0-1.386,2.33,6.24219,6.24219,0,0,0-2.045,2.342c-.654,1.241-1.61,2.336-1.459,3.721.14,1.168.436,2.264.654,3.504a8.31129,8.31129,0,0,0,.29,1.241c.152.435,0,.95.218,1.313.151.217.079.514.369.659v.291c.079.073.079.145.218.145v.291a11.23715,11.23715,0,0,1,1.676,2.196c.152.436-.726.218-1.089.067a8.16537,8.16537,0,0,1-1.749-1.458.24654.24654,0,0,0-.078.145c.296.514,1.385,1.168.804,1.531-.29.151-.659-.218-.95.078-.072.145,0,.29,0,.436-.441-.291-.877-.146-1.313-.291-.29-.072-.369-.659-.726-.659a18.79822,18.79822,0,0,0-2.777-.509,13.902,13.902,0,0,0-3.873-.145,4.20706,4.20706,0,0,0-2.772,1.822v.224c.509.066.733-.369,1.168-.515.726-.145,1.386-.441,2.118-.587a12.08844,12.08844,0,0,1,3.135-.435,2.50065,2.50065,0,0,1,.738,0,10.806,10.806,0,0,0-3.728.732,12.35407,12.35407,0,0,0-2.559.726,16.44308,16.44308,0,0,1,5.621.805,8.34,8.34,0,0,1,1.828.877,5.09579,5.09579,0,0,0,.732.581,1.46943,1.46943,0,0,0,1.241.079h.369a6.01544,6.01544,0,0,0,2.989-1.392c0,.073.072.073.145.073a5.15856,5.15856,0,0,1-.653,1.755c0,.072-.079.217.072.29h.146c-.079,0-.146,0-.146.072,0,.146.218,0,.285.146a1.43183,1.43183,0,0,0-.944.442c0,.072.151.072.218.072-.146.146-.364.073-.436.218a.24937.24937,0,0,0,.139.073c-.067,0-.139,0-.139.072v.218c-.218,0-.297.145-.436.224.291.218.508,0,.805,0-.805.29-1.47.726-2.263.944-.151,0,0,.224-.151.224.218.139.369-.079.587-.079-1.023.587-2.046,1.096-3.147,1.755a.513.513,0,0,0-.139.29h-.297c-.139.073-.072.297-.218.436.364.224.805-.29,1.023,0,.073,0-.145.079-.29.079-.079,0-.079.145-.146.145h-.223c-.146.145-.285.218-.285.436-.151,0-.296,0-.369.145,1.61-.218,3.285-.073,4.817-.871a11.31735,11.31735,0,0,0,3.213-2.415.28225.28225,0,0,1,.072.151,3.20092,3.20092,0,0,1-1.24,1.677c-.436.217-.726.587-1.095.732q-.327.21749-.654.436c-2.704.949-5.918.508-8.254,2.335,0-.072-.073-.072-.145-.072-.145.145-.369.218-.435.369a.064.064,0,0,0,.018.048.18114.18114,0,0,0,.181.067.60424.60424,0,0,1,.121-.067,4.92768,4.92768,0,0,1,1.162-.568.91232.91232,0,0,0-.121.103c-.284.157-.557.326-.835.465h.018a1.64415,1.64415,0,0,0-.496.436.09012.09012,0,0,1,.048.133c-.024.043-.048.085-.072.133a.63364.63364,0,0,0-.049.079c-.03.054-.06.103-.096.157-.013.024-.025.042-.037.067-.018.03-.03.06-.048.091a.21406.21406,0,0,1-.031.054.35927.35927,0,0,1-.036.061.5863.5863,0,0,1-.03.066c-.006.006-.012.012-.012.018-.006.006-.006.012-.013.018-.005.006-.005.013-.011.018a.6046.6046,0,0,0,.078.025.42035.42035,0,0,0,.109.012c.266.006.406-.315.581-.472a2.82406,2.82406,0,0,1,.345-.242c.018.024.036.042.048.06-.005.018-.012.043-.018.067-.042.061-.078.133-.127.193-.036.055.037.097.085.079v.012a6.53877,6.53877,0,0,0-1.229.914.11.11,0,0,1,.097.036.06687.06687,0,0,1,.006.097c-.103.145-.212.291-.314.442-.067.115-.14.224-.212.339-.061.102-.121.206-.188.309-.012.023-.03.048-.042.072a.00588.00588,0,0,0-.006.006.34851.34851,0,0,0,.224-.03c.399-.369.781-.751,1.18-1.126a.21354.21354,0,0,0,.109-.03,7.46235,7.46235,0,0,1,1.21-.956,1.62522,1.62522,0,0,0,.502-.43l.109-.127a.21138.21138,0,0,1,.048-.03,6.25551,6.25551,0,0,1,1.356-.551c.03-.006.055-.012.079-.018a24.04359,24.04359,0,0,1,2.662-.472,7.73121,7.73121,0,0,0,1.816-.073c.46-.103.883-.369,1.319-.508v.139c1.095-.435,1.9-1.386,2.989-1.748.079,0,.218.145.369.072a2.96144,2.96144,0,0,1,2.336-1.095c0,.072,0,.145.073.145h.048l-.781.587c-.072.073,0,.145.079.145.357-.145.581-.435.944-.587-.073.079-.073.218-.139.297a6.85383,6.85383,0,0,0-.799.635,24.18122,24.18122,0,0,0-2.438,2.481h.011c-.417.448-.835.896-1.252,1.307m-11.225-5.228c.514-.218,1.101,0,1.537-.436-.151-.151-.369-.078-.514-.296-.146-.073-.364.073-.509.145-.296.151-.805.151-.877.514-.073.146.218.073.363.073m-11.171-1.604a24.67941,24.67941,0,0,1,5.628-5.04c.139-.073-.224.218.073.145.95-.218,1.24-1.168,1.676-1.894.587-.95,1.609-1.319,2.336-2.118a.26618.26618,0,0,1-.073.218.26846.26846,0,0,0,.218.072c.296-.217.659-.145.877-.435a2.84722,2.84722,0,0,0-1.9-.079,14.31256,14.31256,0,0,0-4.091,3.213,9.87545,9.87545,0,0,1-2.48,2.045,22.20124,22.20124,0,0,1-2.33,3.722.26252.26252,0,0,0,.066.151m6.064-4.822c0-.073,0-.146-.079-.146a.9097.9097,0,0,0-.581.66c0,.073.079.073.145.073a.57759.57759,0,0,0,.297-.291c.066-.133.139-.151.218-.296m3.389,10.94c.06-.145-.327-.109-.388-.066a.97611.97611,0,0,0-.157.163,3.25284,3.25284,0,0,1-.303.284c-.181.17-.351.352-.538.515-.121.103.278.163.363.085.09-.085.187-.17.278-.255.049,0,.091-.012.109-.012a1.584,1.584,0,0,0,.551-.387c.06-.054-.006-.097-.097-.115a.66363.66363,0,0,0,.182-.212m-1.308-.605c.599-.375,1.204-.781,1.864-1.138a1.109,1.109,0,0,0-.66-.145c-.363.073-.804-.145-1.167,0-.926.43-2.1.4-2.796,1.078-.006,0-.006.005-.012.005a1.13373,1.13373,0,0,0-.157.182.18816.18816,0,0,1-.037.03c-.066.061-.139.109-.224.176a3.621,3.621,0,0,0-.375.369c0,.006,0,.006-.006.012-.055.048-.103.103-.164.151-.096.067.055.164.128.109.102-.078.169-.169.272-.236l.037-.018a2.39754,2.39754,0,0,0-.291.393.06714.06714,0,0,1,.006.049c-.006.036-.018.073-.024.109a.02306.02306,0,0,1-.006.018.50609.50609,0,0,1-.024.079.14311.14311,0,0,1-.013.048.022.022,0,0,0-.006.018,1.42984,1.42984,0,0,1-.066.17c-.006.011-.006.018-.013.03-.005,0-.005.006-.005.012l-.013.012a1.5741,1.5741,0,0,1-.078.145c-.03.055-.067.103-.097.158a.25522.25522,0,0,1-.03.042c-.006.006-.006.006-.006.012-.073.103-.151.206-.23.308-.012.019-.031.037-.042.055-.043.055-.085.109-.127.157a.98376.98376,0,0,0-.073.097c-.006,0-.006.006-.012.012-.079.097-.158.182-.236.266.006.012.011.025.018.037v.006a.7164.7164,0,0,0,.066.115l.018.036a.31919.31919,0,0,0,.031.043.0828.0828,0,0,0,.06-.031h.006a.69977.69977,0,0,0,.049-.078l.006-.006c.006-.012.012-.019.018-.031l.024-.024c.006-.006.006-.018.012-.024a.00586.00586,0,0,0,.006-.006,3.38411,3.38411,0,0,1,.43-.448c.085-.078.176-.151.266-.224.006-.012.03-.018.048-.018a.11993.11993,0,0,1,.049.006c.036-.018.079-.042.115-.06a1.114,1.114,0,0,1,.127-.067v.012c-.012.085.115.085.163.055a.7438.7438,0,0,0,.097-.097c.055-.073.109-.121.157-.176v-.006c.007-.006.013-.006.013-.012.036-.036.072-.067.108-.103l.007-.006.006-.006c.036-.036.066-.066.103-.097a3.65712,3.65712,0,0,1,.732-.563.09232.09232,0,0,1,.121.031c.006.006.012.012.012.018.327-.151.653-.29.962-.472.29-.169.563-.363.835-.557.006-.006.013-.006.018-.012m1.495-5.077c.218.218.653.146.95,0a1.1963,1.1963,0,0,1,.726-.145c.073,0,.073-.146.073-.224a1.53853,1.53853,0,0,0,.586.078,20.22443,20.22443,0,0,0,5.041-1.536c-1.906-1.459-4.308-1.967-6.571-2.627.217,0,.435.218.653,0-.363-.29-.805-.145-1.167-.362.078,0,.223.072.296-.079a8.498,8.498,0,0,0-1.755-.436.70741.70741,0,0,0,.581-.726c0-.079-.145-.079-.218-.079a3.94114,3.94114,0,0,0-1.827,2.197c.514.284,1.101.066,1.609.145-.218.218-.587.218-.871.291-.23.054-.442.217-.369.362a.27367.27367,0,0,0,.163.109.96842.96842,0,0,0-.454.261c.291.218.581.072.878.072,0,.146.145.146.218.218a1.29974,1.29974,0,0,0-.732.654c-.146.369-.509.514-.727.805v.217a12.76749,12.76749,0,0,0-2.118,1.9c.073,0,.073.073.073.146-.151.217-.442.29-.515.514,0,.073,0,.139.073.139.878-.29,1.531-.944,2.336-1.24.587-.145,1.023-.508,1.537-.654.363-.072.799-.218,1.162-.291,0,.073,0,.146.078.146h.582c-.073.145-.364.073-.291.145"/><path class="cls-3" d="M149.59254,38.631h-41.56a1.47921,1.47921,0,0,1,.393.182c.339.181.775.417,1.054.562a3.49591,3.49591,0,0,1,1.391,1.162c.145.224.364.659.218.95-.145.369-.218.95-.587,1.095a2.72052,2.72052,0,0,1-1.531.146,3.57581,3.57581,0,0,1-.871-.146,5.99276,5.99276,0,0,1,2.844,1.973c.072.145.363.218.66.218.066,0,.066.145.066.218-.145.151-.285.218-.218.441h.218c.369-.145.297-.877.805-.659a.82079.82079,0,0,1,.29,1.095,7.83623,7.83623,0,0,1-.871.732.62667.62667,0,0,0,0,.509,2.25625,2.25625,0,0,1,.363.877c.218.508.291,1.095.508,1.61a10.11763,10.11763,0,0,1,.515,3.28c0,.587-.297,1.095-.073,1.682a6.17143,6.17143,0,0,0,.799,1.531,11.02264,11.02264,0,0,1,.805,1.167c.435.733,1.24,1.459.871,2.336-.212.515-1.01.442-1.525.732-.441.364-.073.951.145,1.314.37.659-.436,1.095-.95,1.313.145.218.436.145.514.29.067.369.436.587.218.95-.296.442-1.174.66-.732,1.313a1.92585,1.92585,0,0,1-.072,1.61,1.79469,1.79469,0,0,1-1.313,1.095,2.98091,2.98091,0,0,1-1.386.073,1.08618,1.08618,0,0,0-.442-.146,32.77553,32.77553,0,0,0-3.721-.514,4.22483,4.22483,0,0,0-1.023.291,6.60332,6.60332,0,0,0-.884.786l-.005.007a1.93046,1.93046,0,0,0-.164.181c-.03.03-.061.073-.091.109-.024.024-.042.049-.066.072a8.62685,8.62685,0,0,0-.575.841.39.39,0,0,0-.031.061c-.018.031-.036.067-.054.097a7.24379,7.24379,0,0,0-.557,1.343c-.496,1.671-.278,3.105.073,3.455.097.098,2.408.811,4.018,1.525a13.50471,13.50471,0,0,1,1.724.872h40.81Z"/><path class="cls-4" d="M110.50854,52.72478c.291.073.726.073.726.218-.139.587-1.023.732-1.458,1.313h-.218c-.218.145-.152.514-.369.514a1.02846,1.02846,0,0,0-.654.073,1.24093,1.24093,0,0,0,1.089.436.3262.3262,0,0,1,.23.296.20858.20858,0,0,0,.139-.079c.079,0,.146,0,.146.079v.291c-.218.29-.581.145-.872.217a3.28326,3.28326,0,0,0,1.677,0c.441-.145,0-.877.29-1.24-.139,0,0-.224-.139-.224.139-.139.29-.363.435-.436a.52384.52384,0,0,0,.436-.217c0-.146-.296-.219-.218-.364.436-.29.805-.732.654-1.168-.067-.217-.654-.217-1.017-.369a2.46689,2.46689,0,0,0-1.246.073,5.51872,5.51872,0,0,0-1.089.296,5.10058,5.10058,0,0,0-1.393.727,10.222,10.222,0,0,1,1.61-.436,4.731,4.731,0,0,1,1.241,0"/></svg>