<svg xmlns="http://www.w3.org/2000/svg" viewBox="0 0 1440 640" preserveAspectRatio="xMidYMid slice">
<line x1="844.1" y1="57.6" x2="1038.5" y2="70.0" stroke="#fff" stroke-opacity="0.086" stroke-width="1"/>
<line x1="844.1" y1="57.6" x2="1033.4" y2="164.2" stroke="#fff" stroke-opacity="0.076" stroke-width="1"/>
<line x1="844.1" y1="57.6" x2="1032.3" y2="224.4" stroke="#fff" stroke-opacity="0.088" stroke-width="1"/>
<line x1="844.1" y1="57.6" x2="1021.4" y2="333.5" stroke="#fff" stroke-opacity="0.063" stroke-width="1"/>
<line x1="844.1" y1="57.6" x2="1040.2" y2="415.0" stroke="#fff" stroke-opacity="0.053" stroke-width="1"/>
<line x1="844.1" y1="57.6" x2="1031.2" y2="477.1" stroke="#fff" stroke-opacity="0.056" stroke-width="1"/>
<line x1="844.1" y1="57.6" x2="1031.2" y2="562.8" stroke="#fff" stroke-opacity="0.041" stroke-width="1"/>
<line x1="851.9" y1="186.7" x2="1038.5" y2="70.0" stroke="#fff" stroke-opacity="0.057" stroke-width="1"/>
<line x1="851.9" y1="186.7" x2="1033.4" y2="164.2" stroke="#fff" stroke-opacity="0.060" stroke-width="1"/>
<line x1="851.9" y1="186.7" x2="1032.3" y2="224.4" stroke="#fff" stroke-opacity="0.093" stroke-width="1"/>
<line x1="851.9" y1="186.7" x2="1021.4" y2="333.5" stroke="#fff" stroke-opacity="0.097" stroke-width="1"/>
<line x1="851.9" y1="186.7" x2="1040.2" y2="415.0" stroke="#fff" stroke-opacity="0.052" stroke-width="1"/>
<line x1="851.9" y1="186.7" x2="1031.2" y2="477.1" stroke="#fff" stroke-opacity="0.092" stroke-width="1"/>
<line x1="851.9" y1="186.7" x2="1031.2" y2="562.8" stroke="#fff" stroke-opacity="0.075" stroke-width="1"/>
<line x1="847.0" y1="305.8" x2="1038.5" y2="70.0" stroke="#fff" stroke-opacity="0.060" stroke-width="1"/>
<line x1="847.0" y1="305.8" x2="1033.4" y2="164.2" stroke="#fff" stroke-opacity="0.059" stroke-width="1"/>
<line x1="847.0" y1="305.8" x2="1032.3" y2="224.4" stroke="#fff" stroke-opacity="0.048" stroke-width="1"/>
<line x1="847.0" y1="305.8" x2="1021.4" y2="333.5" stroke="#fff" stroke-opacity="0.099" stroke-width="1"/>
<line x1="847.0" y1="305.8" x2="1040.2" y2="415.0" stroke="#fff" stroke-opacity="0.046" stroke-width="1"/>
<line x1="847.0" y1="305.8" x2="1031.2" y2="477.1" stroke="#fff" stroke-opacity="0.095" stroke-width="1"/>
<line x1="847.0" y1="305.8" x2="1031.2" y2="562.8" stroke="#fff" stroke-opacity="0.088" stroke-width="1"/>
<line x1="848.7" y1="433.6" x2="1038.5" y2="70.0" stroke="#fff" stroke-opacity="0.066" stroke-width="1"/>
<line x1="848.7" y1="433.6" x2="1033.4" y2="164.2" stroke="#fff" stroke-opacity="0.083" stroke-width="1"/>
<line x1="848.7" y1="433.6" x2="1032.3" y2="224.4" stroke="#fff" stroke-opacity="0.058" stroke-width="1"/>
<line x1="848.7" y1="433.6" x2="1021.4" y2="333.5" stroke="#fff" stroke-opacity="0.047" stroke-width="1"/>
<line x1="848.7" y1="433.6" x2="1040.2" y2="415.0" stroke="#fff" stroke-opacity="0.071" stroke-width="1"/>
<line x1="848.7" y1="433.6" x2="1031.2" y2="477.1" stroke="#fff" stroke-opacity="0.047" stroke-width="1"/>
<line x1="848.7" y1="433.6" x2="1031.2" y2="562.8" stroke="#fff" stroke-opacity="0.055" stroke-width="1"/>
<line x1="859.0" y1="584.8" x2="1038.5" y2="70.0" stroke="#fff" stroke-opacity="0.076" stroke-width="1"/>
<line x1="859.0" y1="584.8" x2="1033.4" y2="164.2" stroke="#fff" stroke-opacity="0.082" stroke-width="1"/>
<line x1="859.0" y1="584.8" x2="1032.3" y2="224.4" stroke="#fff" stroke-opacity="0.069" stroke-width="1"/>
<line x1="859.0" y1="584.8" x2="1021.4" y2="333.5" stroke="#fff" stroke-opacity="0.053" stroke-width="1"/>
<line x1="859.0" y1="584.8" x2="1040.2" y2="415.0" stroke="#fff" stroke-opacity="0.054" stroke-width="1"/>
<line x1="859.0" y1="584.8" x2="1031.2" y2="477.1" stroke="#fff" stroke-opacity="0.082" stroke-width="1"/>
<line x1="859.0" y1="584.8" x2="1031.2" y2="562.8" stroke="#fff" stroke-opacity="0.093" stroke-width="1"/>
<line x1="1038.5" y1="70.0" x2="1220.6" y2="79.6" stroke="#fff" stroke-opacity="0.089" stroke-width="1"/>
<line x1="1038.5" y1="70.0" x2="1201.7" y2="163.2" stroke="#fff" stroke-opacity="0.082" stroke-width="1"/>
<line x1="1038.5" y1="70.0" x2="1209.2" y2="223.5" stroke="#fff" stroke-opacity="0.090" stroke-width="1"/>
<line x1="1038.5" y1="70.0" x2="1198.5" y2="321.1" stroke="#fff" stroke-opacity="0.064" stroke-width="1"/>
<line x1="1038.5" y1="70.0" x2="1217.9" y2="413.7" stroke="#fff" stroke-opacity="0.049" stroke-width="1"/>
<line x1="1038.5" y1="70.0" x2="1214.3" y2="483.1" stroke="#fff" stroke-opacity="0.048" stroke-width="1"/>
<line x1="1038.5" y1="70.0" x2="1212.1" y2="575.9" stroke="#fff" stroke-opacity="0.072" stroke-width="1"/>
<line x1="1033.4" y1="164.2" x2="1220.6" y2="79.6" stroke="#fff" stroke-opacity="0.079" stroke-width="1"/>
<line x1="1033.4" y1="164.2" x2="1201.7" y2="163.2" stroke="#fff" stroke-opacity="0.099" stroke-width="1"/>
<line x1="1033.4" y1="164.2" x2="1209.2" y2="223.5" stroke="#fff" stroke-opacity="0.066" stroke-width="1"/>
<line x1="1033.4" y1="164.2" x2="1198.5" y2="321.1" stroke="#fff" stroke-opacity="0.085" stroke-width="1"/>
<line x1="1033.4" y1="164.2" x2="1217.9" y2="413.7" stroke="#fff" stroke-opacity="0.066" stroke-width="1"/>
<line x1="1033.4" y1="164.2" x2="1214.3" y2="483.1" stroke="#fff" stroke-opacity="0.043" stroke-width="1"/>
<line x1="1033.4" y1="164.2" x2="1212.1" y2="575.9" stroke="#fff" stroke-opacity="0.045" stroke-width="1"/>
<line x1="1032.3" y1="224.4" x2="1220.6" y2="79.6" stroke="#fff" stroke-opacity="0.090" stroke-width="1"/>
<line x1="1032.3" y1="224.4" x2="1201.7" y2="163.2" stroke="#fff" stroke-opacity="0.099" stroke-width="1"/>
<line x1="1032.3" y1="224.4" x2="1209.2" y2="223.5" stroke="#fff" stroke-opacity="0.088" stroke-width="1"/>
<line x1="1032.3" y1="224.4" x2="1198.5" y2="321.1" stroke="#fff" stroke-opacity="0.050" stroke-width="1"/>
<line x1="1032.3" y1="224.4" x2="1217.9" y2="413.7" stroke="#fff" stroke-opacity="0.063" stroke-width="1"/>
<line x1="1032.3" y1="224.4" x2="1214.3" y2="483.1" stroke="#fff" stroke-opacity="0.057" stroke-width="1"/>
<line x1="1032.3" y1="224.4" x2="1212.1" y2="575.9" stroke="#fff" stroke-opacity="0.069" stroke-width="1"/>
<line x1="1021.4" y1="333.5" x2="1220.6" y2="79.6" stroke="#fff" stroke-opacity="0.090" stroke-width="1"/>
<line x1="1021.4" y1="333.5" x2="1201.7" y2="163.2" stroke="#fff" stroke-opacity="0.095" stroke-width="1"/>
<line x1="1021.4" y1="333.5" x2="1209.2" y2="223.5" stroke="#fff" stroke-opacity="0.052" stroke-width="1"/>
<line x1="1021.4" y1="333.5" x2="1198.5" y2="321.1" stroke="#fff" stroke-opacity="0.059" stroke-width="1"/>
<line x1="1021.4" y1="333.5" x2="1217.9" y2="413.7" stroke="#fff" stroke-opacity="0.072" stroke-width="1"/>
<line x1="1021.4" y1="333.5" x2="1214.3" y2="483.1" stroke="#fff" stroke-opacity="0.056" stroke-width="1"/>
<line x1="1021.4" y1="333.5" x2="1212.1" y2="575.9" stroke="#fff" stroke-opacity="0.064" stroke-width="1"/>
<line x1="1040.2" y1="415.0" x2="1220.6" y2="79.6" stroke="#fff" stroke-opacity="0.041" stroke-width="1"/>
<line x1="1040.2" y1="415.0" x2="1201.7" y2="163.2" stroke="#fff" stroke-opacity="0.079" stroke-width="1"/>
<line x1="1040.2" y1="415.0" x2="1209.2" y2="223.5" stroke="#fff" stroke-opacity="0.062" stroke-width="1"/>
<line x1="1040.2" y1="415.0" x2="1198.5" y2="321.1" stroke="#fff" stroke-opacity="0.068" stroke-width="1"/>
<line x1="1040.2" y1="415.0" x2="1217.9" y2="413.7" stroke="#fff" stroke-opacity="0.055" stroke-width="1"/>
<line x1="1040.2" y1="415.0" x2="1214.3" y2="483.1" stroke="#fff" stroke-opacity="0.076" stroke-width="1"/>
<line x1="1040.2" y1="415.0" x2="1212.1" y2="575.9" stroke="#fff" stroke-opacity="0.082" stroke-width="1"/>
<line x1="1031.2" y1="477.1" x2="1220.6" y2="79.6" stroke="#fff" stroke-opacity="0.073" stroke-width="1"/>
<line x1="1031.2" y1="477.1" x2="1201.7" y2="163.2" stroke="#fff" stroke-opacity="0.076" stroke-width="1"/>
<line x1="1031.2" y1="477.1" x2="1209.2" y2="223.5" stroke="#fff" stroke-opacity="0.054" stroke-width="1"/>
<line x1="1031.2" y1="477.1" x2="1198.5" y2="321.1" stroke="#fff" stroke-opacity="0.063" stroke-width="1"/>
<line x1="1031.2" y1="477.1" x2="1217.9" y2="413.7" stroke="#fff" stroke-opacity="0.065" stroke-width="1"/>
<line x1="1031.2" y1="477.1" x2="1214.3" y2="483.1" stroke="#fff" stroke-opacity="0.096" stroke-width="1"/>
<line x1="1031.2" y1="477.1" x2="1212.1" y2="575.9" stroke="#fff" stroke-opacity="0.054" stroke-width="1"/>
<line x1="1031.2" y1="562.8" x2="1220.6" y2="79.6" stroke="#fff" stroke-opacity="0.095" stroke-width="1"/>
<line x1="1031.2" y1="562.8" x2="1201.7" y2="163.2" stroke="#fff" stroke-opacity="0.097" stroke-width="1"/>
<line x1="1031.2" y1="562.8" x2="1209.2" y2="223.5" stroke="#fff" stroke-opacity="0.074" stroke-width="1"/>
<line x1="1031.2" y1="562.8" x2="1198.5" y2="321.1" stroke="#fff" stroke-opacity="0.095" stroke-width="1"/>
<line x1="1031.2" y1="562.8" x2="1217.9" y2="413.7" stroke="#fff" stroke-opacity="0.042" stroke-width="1"/>
<line x1="1031.2" y1="562.8" x2="1214.3" y2="483.1" stroke="#fff" stroke-opacity="0.055" stroke-width="1"/>
<line x1="1031.2" y1="562.8" x2="1212.1" y2="575.9" stroke="#fff" stroke-opacity="0.072" stroke-width="1"/>
<line x1="1220.6" y1="79.6" x2="1395.1" y2="76.6" stroke="#fff" stroke-opacity="0.070" stroke-width="1"/>
<line x1="1220.6" y1="79.6" x2="1401.8" y2="235.2" stroke="#fff" stroke-opacity="0.097" stroke-width="1"/>
<line x1="1220.6" y1="79.6" x2="1380.4" y2="394.1" stroke="#fff" stroke-opacity="0.099" stroke-width="1"/>
<line x1="1220.6" y1="79.6" x2="1388.7" y2="558.8" stroke="#fff" stroke-opacity="0.082" stroke-width="1"/>
<line x1="1201.7" y1="163.2" x2="1395.1" y2="76.6" stroke="#fff" stroke-opacity="0.089" stroke-width="1"/>
<line x1="1201.7" y1="163.2" x2="1401.8" y2="235.2" stroke="#fff" stroke-opacity="0.059" stroke-width="1"/>
<line x1="1201.7" y1="163.2" x2="1380.4" y2="394.1" stroke="#fff" stroke-opacity="0.074" stroke-width="1"/>
<line x1="1201.7" y1="163.2" x2="1388.7" y2="558.8" stroke="#fff" stroke-opacity="0.081" stroke-width="1"/>
<line x1="1209.2" y1="223.5" x2="1395.1" y2="76.6" stroke="#fff" stroke-opacity="0.043" stroke-width="1"/>
<line x1="1209.2" y1="223.5" x2="1401.8" y2="235.2" stroke="#fff" stroke-opacity="0.060" stroke-width="1"/>
<line x1="1209.2" y1="223.5" x2="1380.4" y2="394.1" stroke="#fff" stroke-opacity="0.068" stroke-width="1"/>
<line x1="1209.2" y1="223.5" x2="1388.7" y2="558.8" stroke="#fff" stroke-opacity="0.086" stroke-width="1"/>
<line x1="1198.5" y1="321.1" x2="1395.1" y2="76.6" stroke="#fff" stroke-opacity="0.098" stroke-width="1"/>
<line x1="1198.5" y1="321.1" x2="1401.8" y2="235.2" stroke="#fff" stroke-opacity="0.042" stroke-width="1"/>
<line x1="1198.5" y1="321.1" x2="1380.4" y2="394.1" stroke="#fff" stroke-opacity="0.075" stroke-width="1"/>
<line x1="1198.5" y1="321.1" x2="1388.7" y2="558.8" stroke="#fff" stroke-opacity="0.058" stroke-width="1"/>
<line x1="1217.9" y1="413.7" x2="1395.1" y2="76.6" stroke="#fff" stroke-opacity="0.079" stroke-width="1"/>
<line x1="1217.9" y1="413.7" x2="1401.8" y2="235.2" stroke="#fff" stroke-opacity="0.080" stroke-width="1"/>
<line x1="1217.9" y1="413.7" x2="1380.4" y2="394.1" stroke="#fff" stroke-opacity="0.068" stroke-width="1"/>
<line x1="1217.9" y1="413.7" x2="1388.7" y2="558.8" stroke="#fff" stroke-opacity="0.055" stroke-width="1"/>
<line x1="1214.3" y1="483.1" x2="1395.1" y2="76.6" stroke="#fff" stroke-opacity="0.083" stroke-width="1"/>
<line x1="1214.3" y1="483.1" x2="1401.8" y2="235.2" stroke="#fff" stroke-opacity="0.070" stroke-width="1"/>
<line x1="1214.3" y1="483.1" x2="1380.4" y2="394.1" stroke="#fff" stroke-opacity="0.042" stroke-width="1"/>
<line x1="1214.3" y1="483.1" x2="1388.7" y2="558.8" stroke="#fff" stroke-opacity="0.091" stroke-width="1"/>
<line x1="1212.1" y1="575.9" x2="1395.1" y2="76.6" stroke="#fff" stroke-opacity="0.084" stroke-width="1"/>
<line x1="1212.1" y1="575.9" x2="1401.8" y2="235.2" stroke="#fff" stroke-opacity="0.094" stroke-width="1"/>
<line x1="1212.1" y1="575.9" x2="1380.4" y2="394.1" stroke="#fff" stroke-opacity="0.084" stroke-width="1"/>
<line x1="1212.1" y1="575.9" x2="1388.7" y2="558.8" stroke="#fff" stroke-opacity="0.072" stroke-width="1"/>
<circle cx="844.1" cy="57.6" r="5" fill="#38bdf8" fill-opacity="0.4"/>
<circle cx="851.9" cy="186.7" r="3.5" fill="#fff" fill-opacity="0.2"/>
<circle cx="847.0" cy="305.8" r="3.5" fill="#fff" fill-opacity="0.2"/>
<circle cx="848.7" cy="433.6" r="3.5" fill="#fff" fill-opacity="0.2"/>
<circle cx="859.0" cy="584.8" r="3.5" fill="#fff" fill-opacity="0.2"/>
<circle cx="1038.5" cy="70.0" r="3.5" fill="#fff" fill-opacity="0.2"/>
<circle cx="1033.4" cy="164.2" r="5" fill="#38bdf8" fill-opacity="0.4"/>
<circle cx="1032.3" cy="224.4" r="3.5" fill="#fff" fill-opacity="0.2"/>
<circle cx="1021.4" cy="333.5" r="3.5" fill="#fff" fill-opacity="0.2"/>
<circle cx="1040.2" cy="415.0" r="3.5" fill="#fff" fill-opacity="0.2"/>
<circle cx="1031.2" cy="477.1" r="3.5" fill="#fff" fill-opacity="0.2"/>
<circle cx="1031.2" cy="562.8" r="3.5" fill="#fff" fill-opacity="0.2"/>
<circle cx="1220.6" cy="79.6" r="5" fill="#38bdf8" fill-opacity="0.4"/>
<circle cx="1201.7" cy="163.2" r="3.5" fill="#fff" fill-opacity="0.2"/>
<circle cx="1209.2" cy="223.5" r="3.5" fill="#fff" fill-opacity="0.2"/>
<circle cx="1198.5" cy="321.1" r="3.5" fill="#fff" fill-opacity="0.2"/>
<circle cx="1217.9" cy="413.7" r="3.5" fill="#fff" fill-opacity="0.2"/>
<circle cx="1214.3" cy="483.1" r="3.5" fill="#fff" fill-opacity="0.2"/>
<circle cx="1212.1" cy="575.9" r="5" fill="#38bdf8" fill-opacity="0.4"/>
<circle cx="1395.1" cy="76.6" r="3.5" fill="#fff" fill-opacity="0.2"/>
<circle cx="1401.8" cy="235.2" r="3.5" fill="#fff" fill-opacity="0.2"/>
<circle cx="1380.4" cy="394.1" r="3.5" fill="#fff" fill-opacity="0.2"/>
<circle cx="1388.7" cy="558.8" r="3.5" fill="#fff" fill-opacity="0.2"/>
<circle cx="697.5" cy="629.0" r="2" fill="#fff" fill-opacity="0.08"/>
<circle cx="434.7" cy="502.3" r="2" fill="#fff" fill-opacity="0.08"/>
<circle cx="38.2" cy="347.9" r="2" fill="#fff" fill-opacity="0.08"/>
<circle cx="431.1" cy="159.7" r="2" fill="#fff" fill-opacity="0.08"/>
<circle cx="523.1" cy="15.4" r="2" fill="#fff" fill-opacity="0.08"/>
<circle cx="658.3" cy="286.8" r="2" fill="#fff" fill-opacity="0.08"/>
<circle cx="246.9" cy="368.2" r="2" fill="#fff" fill-opacity="0.08"/>
<circle cx="399.6" cy="19.6" r="2" fill="#fff" fill-opacity="0.08"/>
<circle cx="285.3" cy="377.3" r="2" fill="#fff" fill-opacity="0.08"/>
<circle cx="48.7" cy="89.9" r="2" fill="#fff" fill-opacity="0.08"/>
<circle cx="75.5" cy="164.1" r="2" fill="#fff" fill-opacity="0.08"/>
<circle cx="197.7" cy="358.8" r="2" fill="#fff" fill-opacity="0.08"/>
<circle cx="301.1" cy="623.9" r="2" fill="#fff" fill-opacity="0.08"/>
<circle cx="468.0" cy="383.1" r="2" fill="#fff" fill-opacity="0.08"/>
</svg>
